Coordinates
version=1
nRows=15
nColumns=23
inDegrees=yes

Units are S.I. units (second, meters, Newtons, ...)
If the header above contains a line with 'inDegrees', this indicates whether rotational values are in degrees (yes) or radians (no).

endheader
time	pelvis_tilt	pelvis_list	pelvis_rotation	pelvis_tx	pelvis_ty	pelvis_tz	hip_flexion_r	hip_adduction_r	hip_rotation_r	knee_angle_r	knee_angle_r_beta	ankle_angle_r	subtalar_angle_r	mtp_angle_r	hip_flexion_l	hip_adduction_l	hip_rotation_l	knee_angle_l	knee_angle_l_beta	ankle_angle_l	subtalar_angle_l	mtp_angle_l
     22.50000000	     -7.70975481	     -0.80588731	     -4.28034086	      2.36593909	      0.88505759	      1.01980063	     31.61607329	      7.49672451	      1.70477131	     38.40029293	      0.67021155	      6.88041656	    -13.47727586	      0.00000000	     -4.48234572	     -3.43546632	     -6.66744743	    106.32246075	      1.85567701	    -11.81844192	    -20.03647267	      0.00000000
     22.50666667	     -8.12511798	     -1.10668159	     -4.49158414	      2.36329651	      0.87920323	      1.02012609	     31.41455219	      8.09068379	      2.08459935	     40.21777712	      0.70193263	      9.37624163	    -13.92490863	      0.00000000	     -1.89598312	     -4.18239014	     -6.36516333	    109.81449446	      1.91662449	    -11.19443611	    -19.13232217	      0.00000000
     22.51333333	     -8.07391445	     -1.51821266	     -4.71355099	      2.36055925	      0.87457611	      1.02046214	     30.48290608	      8.72717568	      2.39964207	     41.63905916	      0.72673868	     11.75921674	    -14.45388538	      0.00000000	      0.28364335	     -5.05382774	     -6.01208093	    112.95411024	      1.97142113	    -10.88469170	    -18.66360517	      0.00000000
     22.52000000	     -9.05415355	     -1.72222771	     -4.88991345	      2.35704717	      0.86924430	      1.02069604	     30.72000849	      9.17566187	      2.64148057	     43.04999209	      0.75136410	     13.84781330	    -14.33172988	      0.00000000	      3.99831884	     -5.74240373	     -5.42833038	    116.18084453	      2.02773826	     -9.87633940	    -16.91007319	      0.00000000
     22.52666667	     -9.53878896	     -2.02557991	     -5.06112157	      2.35357983	      0.86537146	      1.02084611	     30.16744514	      9.62184406	      2.83238180	     44.00540368	      0.76803918	     15.77297808	    -14.21686058	      0.00000000	      7.27032054	     -6.48657428	     -4.77235537	    118.94581916	      2.07599618	     -9.23623056	    -15.64949414	      0.00000000
     22.53333333	     -9.99262057	     -2.31282320	     -5.21233349	      2.35001219	      0.86235638	      1.02086442	     29.40899051	      9.98269058	      2.99743636	     44.62295414	      0.77881747	     17.42050013	    -13.99106813	      0.00000000	     10.68617877	     -7.16024062	     -4.01867854	    121.35734432	      2.11808523	     -8.63869318	    -14.33100588	      0.00000000
     22.54000000	    -10.40683662	     -2.52984311	     -5.32258370	      2.34641694	      0.86023552	      1.02071658	     28.44695518	     10.19288719	      3.14591047	     44.91838728	      0.78397375	     18.81340868	    -13.63266434	      0.00000000	     14.21776962	     -7.66800931	     -3.20472042	    123.36321230	      2.15309423	     -8.10701273	    -13.01997278	      0.00000000
     22.54666667	    -10.76578641	     -2.72055963	     -5.40879643	      2.34293052	      0.85901134	      1.02044668	     27.24427731	     10.30039948	      3.26204584	     44.86074462	      0.78296770	     19.90104095	    -13.16741838	      0.00000000	     17.78253234	     -8.07224804	     -2.38902423	    124.91976637	      2.18026122	     -7.62770922	    -11.78442126	      0.00000000
     22.55333333	    -11.06359926	     -2.78611937	     -5.44088410	      2.33963207	      0.85866670	      1.02002302	     25.83186316	     10.20350733	      3.37099272	     44.51443848	      0.77692352	     20.66809183	    -12.55986765	      0.00000000	     21.33561460	     -8.21176709	     -1.61681991	    125.99059983	      2.19895079	     -7.20035084	    -10.63797750	      0.00000000
     22.56000000	    -11.25925220	     -2.74392203	     -5.44100337	      2.33665884	      0.85925841	      1.01952085	     24.14980923	      9.91954711	      3.45280218	     43.84964792	      0.76532073	     21.11988861	    -11.85682869	      0.00000000	     24.74723049	     -8.13388965	     -0.96494153	    126.53908042	      2.20852359	     -6.84127223	     -9.70156869	      0.00000000
     22.56666667	    -11.34410902	     -2.57316534	     -5.40776905	      2.33409616	      0.86077511	      1.01897692	     22.20072361	      9.43922869	      3.51494144	     42.87670553	      0.74833968	     21.18520239	    -11.11490335	      0.00000000	     27.93588216	     -7.82808850	     -0.48897973	    126.54648122	      2.20865275	     -6.56935275	     -9.02258971	      0.00000000
     22.57333333	    -11.36759816	     -2.16425056	     -5.52097300	      2.33197114	      0.86308290	      1.01861481	     20.11200509	      8.80730666	      3.94579349	     41.75621591	      0.72878345	     21.27146535	    -10.58587342	      0.00000000	     30.83546706	     -7.30244132	     -0.45695747	    125.98812311	      2.19890757	     -6.28070794	     -8.77137683	      0.00000000
     22.58000000	    -11.41994863	     -1.92582699	     -5.18538292	      2.33032309	      0.86604004	      1.01785750	     17.84882122	      8.05499757	      3.53873516	     40.12032292	      0.70023173	     20.28817679	     -9.50683935	      0.00000000	     33.74688416	     -6.66917566	     -0.00404191	    125.07937921	      2.18304699	     -5.97283495	     -8.31785289	      0.00000000
     22.58666667	    -11.23905389	     -1.50950925	     -4.94424760	      2.32933787	      0.86993874	      1.01724657	     15.24002686	      7.13744029	      3.24653709	     38.28264799	      0.66815825	     19.34200384	     -8.33397779	      0.00000000	     36.06930028	     -5.86026781	      0.05044064	    123.61522557	      2.15749269	     -5.67138177	     -8.28616828	      0.00000000
     22.59333333	    -11.16093841	     -1.00321965	     -4.62976116	      2.32882399	      0.87429725	      1.01657726	     12.65744748	      6.15228965	      2.91618917	     36.19247117	      0.63167779	     17.79800527	     -7.40519737	      0.00000000	     38.27319927	     -4.88226044	     -0.01284785	    121.72318811	      2.12447041	     -5.43543586	     -8.54095591	      0.00000000
